<?xml version="1.0" encoding="UTF-8" ?>
<svg version="1.1" width="64" height="64" xmlns="http://www.w3.org/2000/svg" shape-rendering="crispEdges">
<rect x="0" y="0" width="16" height="37" fill="#070710" />
<rect x="16" y="0" width="1" height="1" fill="#000000" />
<rect x="17" y="0" width="10" height="1" fill="#E70000" />
<rect x="27" y="0" width="1" height="2" fill="#D20606" />
<rect x="28" y="0" width="2" height="2" fill="#E70000" />
<rect x="30" y="0" width="3" height="1" fill="#F2EE0C" />
<rect x="33" y="0" width="4" height="3" fill="#E70000" />
<rect x="37" y="0" width="1" height="1" fill="#D20606" />
<rect x="38" y="0" width="9" height="1" fill="#E70000" />
<rect x="47" y="0" width="1" height="1" fill="#D20606" />
<rect x="48" y="0" width="6" height="1" fill="#E70000" />
<rect x="54" y="0" width="1" height="64" fill="#000000" />
<rect x="55" y="0" width="1" height="64" fill="#8F563B" />
<rect x="56" y="0" width="1" height="29" fill="#000000" />
<rect x="57" y="0" width="2" height="28" fill="#8F563B" />
<rect x="59" y="0" width="1" height="25" fill="#000000" />
<rect x="60" y="0" width="2" height="24" fill="#8F563B" />
<rect x="62" y="0" width="2" height="22" fill="#000000" />
<rect x="16" y="1" width="1" height="36" fill="#070710" />
<rect x="17" y="1" width="1" height="1" fill="#000000" />
<rect x="18" y="1" width="9" height="1" fill="#E70000" />
<rect x="30" y="1" width="1" height="4" fill="#E70000" />
<rect x="31" y="1" width="2" height="3" fill="#F2EE0C" />
<rect x="37" y="1" width="1" height="13" fill="#E70000" />
<rect x="38" y="1" width="1" height="3" fill="#D20606" />
<rect x="39" y="1" width="9" height="3" fill="#E70000" />
<rect x="48" y="1" width="1" height="6" fill="#D20606" />
<rect x="49" y="1" width="5" height="6" fill="#E70000" />
<rect x="17" y="2" width="1" height="34" fill="#070710" />
<rect x="18" y="2" width="1" height="1" fill="#000000" />
<rect x="19" y="2" width="9" height="1" fill="#E70000" />
<rect x="28" y="2" width="1" height="2" fill="#D20606" />
<rect x="29" y="2" width="1" height="2" fill="#E70000" />
<rect x="18" y="3" width="1" height="33" fill="#070710" />
<rect x="19" y="3" width="1" height="1" fill="#000000" />
<rect x="20" y="3" width="8" height="1" fill="#E70000" />
<rect x="33" y="3" width="1" height="7" fill="#F2EE0C" />
<rect x="34" y="3" width="3" height="3" fill="#E70000" />
<rect x="19" y="4" width="1" height="32" fill="#070710" />
<rect x="20" y="4" width="1" height="2" fill="#000000" />
<rect x="21" y="4" width="8" height="2" fill="#E70000" />
<rect x="29" y="4" width="1" height="1" fill="#D20606" />
<rect x="31" y="4" width="1" height="2" fill="#E70000" />
<rect x="32" y="4" width="1" height="3" fill="#F2EE0C" />
<rect x="38" y="4" width="1" height="11" fill="#E70000" />
<rect x="39" y="4" width="1" height="3" fill="#D20606" />
<rect x="40" y="4" width="8" height="3" fill="#E70000" />
<rect x="29" y="5" width="1" height="10" fill="#E70000" />
<rect x="30" y="5" width="1" height="1" fill="#D20606" />
<rect x="20" y="6" width="1" height="30" fill="#070710" />
<rect x="21" y="6" width="1" height="1" fill="#000000" />
<rect x="22" y="6" width="7" height="1" fill="#E70000" />
<rect x="30" y="6" width="1" height="10" fill="#E70000" />
<rect x="31" y="6" width="1" height="2" fill="#D20606" />
<rect x="34" y="6" width="1" height="7" fill="#F2EE0C" />
<rect x="35" y="6" width="2" height="3" fill="#E70000" />
<rect x="21" y="7" width="1" height="29" fill="#070710" />
<rect x="22" y="7" width="1" height="1" fill="#000000" />
<rect x="23" y="7" width="6" height="1" fill="#E70000" />
<rect x="32" y="7" width="1" height="1" fill="#E70000" />
<rect x="39" y="7" width="1" height="9" fill="#E70000" />
<rect x="40" y="7" width="1" height="2" fill="#D20606" />
<rect x="41" y="7" width="8" height="2" fill="#E70000" />
<rect x="49" y="7" width="1" height="3" fill="#D20606" />
<rect x="50" y="7" width="4" height="3" fill="#E70000" />
<rect x="22" y="8" width="1" height="28" fill="#070710" />
<rect x="23" y="8" width="1" height="1" fill="#000000" />
<rect x="24" y="8" width="5" height="1" fill="#E70000" />
<rect x="31" y="8" width="1" height="9" fill="#E70000" />
<rect x="32" y="8" width="1" height="1" fill="#D20606" />
<rect x="23" y="9" width="1" height="27" fill="#070710" />
<rect x="24" y="9" width="1" height="1" fill="#000000" />
<rect x="25" y="9" width="4" height="1" fill="#E70000" />
<rect x="32" y="9" width="1" height="9" fill="#E70000" />
<rect x="35" y="9" width="1" height="6" fill="#F2EE0C" />
<rect x="36" y="9" width="1" height="3" fill="#E70000" />
<rect x="40" y="9" width="1" height="8" fill="#E70000" />
<rect x="41" y="9" width="1" height="2" fill="#D20606" />
<rect x="42" y="9" width="7" height="2" fill="#E70000" />
<rect x="24" y="10" width="1" height="25" fill="#070710" />
<rect x="25" y="10" width="1" height="1" fill="#000000" />
<rect x="26" y="10" width="3" height="1" fill="#E70000" />
<rect x="33" y="10" width="1" height="9" fill="#E70000" />
<rect x="49" y="10" width="1" height="9" fill="#E70000" />
<rect x="50" y="10" width="1" height="2" fill="#D20606" />
<rect x="51" y="10" width="3" height="2" fill="#E70000" />
<rect x="25" y="11" width="1" height="17" fill="#070710" />
<rect x="26" y="11" width="1" height="1" fill="#000000" />
<rect x="27" y="11" width="2" height="1" fill="#E70000" />
<rect x="41" y="11" width="1" height="7" fill="#E70000" />
<rect x="42" y="11" width="1" height="1" fill="#D20606" />
<rect x="43" y="11" width="6" height="1" fill="#E70000" />
<rect x="26" y="12" width="1" height="14" fill="#070710" />
<rect x="27" y="12" width="1" height="2" fill="#000000" />
<rect x="28" y="12" width="1" height="2" fill="#E70000" />
<rect x="36" y="12" width="1" height="6" fill="#F2EE0C" />
<rect x="42" y="12" width="1" height="7" fill="#E70000" />
<rect x="43" y="12" width="1" height="2" fill="#D20606" />
<rect x="44" y="12" width="5" height="2" fill="#E70000" />
<rect x="50" y="12" width="1" height="8" fill="#E70000" />
<rect x="51" y="12" width="1" height="3" fill="#D20606" />
<rect x="52" y="12" width="2" height="3" fill="#E70000" />
<rect x="34" y="13" width="1" height="7" fill="#E70000" />
<rect x="27" y="14" width="1" height="11" fill="#070710" />
<rect x="28" y="14" width="1" height="1" fill="#000000" />
<rect x="37" y="14" width="1" height="6" fill="#F2EE0C" />
<rect x="43" y="14" width="1" height="5" fill="#E70000" />
<rect x="44" y="14" width="1" height="1" fill="#D20606" />
<rect x="45" y="14" width="4" height="1" fill="#E70000" />
<rect x="28" y="15" width="1" height="9" fill="#070710" />
<rect x="29" y="15" width="1" height="1" fill="#000000" />
<rect x="35" y="15" width="1" height="6" fill="#E70000" />
<rect x="38" y="15" width="1" height="1" fill="#D20606" />
<rect x="44" y="15" width="1" height="5" fill="#E70000" />
<rect x="45" y="15" width="1" height="1" fill="#D20606" />
<rect x="46" y="15" width="3" height="1" fill="#E70000" />
<rect x="51" y="15" width="1" height="6" fill="#E70000" />
<rect x="52" y="15" width="1" height="2" fill="#D20606" />
<rect x="53" y="15" width="1" height="2" fill="#E70000" />
<rect x="29" y="16" width="1" height="6" fill="#070710" />
<rect x="30" y="16" width="1" height="1" fill="#000000" />
<rect x="38" y="16" width="1" height="1" fill="#E70000" />
<rect x="39" y="16" width="1" height="1" fill="#D20606" />
<rect x="45" y="16" width="1" height="5" fill="#E70000" />
<rect x="46" y="16" width="1" height="1" fill="#D20606" />
<rect x="47" y="16" width="2" height="1" fill="#E70000" />
<rect x="30" y="17" width="1" height="5" fill="#070710" />
<rect x="31" y="17" width="1" height="1" fill="#000000" />
<rect x="38" y="17" width="1" height="5" fill="#F2EE0C" />
<rect x="39" y="17" width="1" height="2" fill="#E70000" />
<rect x="40" y="17" width="1" height="1" fill="#D20606" />
<rect x="46" y="17" width="1" height="5" fill="#E70000" />
<rect x="47" y="17" width="1" height="1" fill="#D20606" />
<rect x="48" y="17" width="1" height="1" fill="#E70000" />
<rect x="52" y="17" width="1" height="5" fill="#E70000" />
<rect x="53" y="17" width="1" height="2" fill="#D20606" />
<rect x="31" y="18" width="1" height="2" fill="#070710" />
<rect x="32" y="18" width="1" height="1" fill="#000000" />
<rect x="36" y="18" width="1" height="4" fill="#E70000" />
<rect x="40" y="18" width="1" height="3" fill="#E70000" />
<rect x="41" y="18" width="1" height="1" fill="#D20606" />
<rect x="47" y="18" width="1" height="4" fill="#E70000" />
<rect x="48" y="18" width="1" height="1" fill="#D20606" />
<rect x="32" y="19" width="1" height="1" fill="#070710" />
<rect x="33" y="19" width="1" height="1" fill="#000000" />
<rect x="39" y="19" width="1" height="5" fill="#F2EE0C" />
<rect x="41" y="19" width="1" height="4" fill="#E70000" />
<rect x="42" y="19" width="2" height="1" fill="#D20606" />
<rect x="48" y="19" width="1" height="4" fill="#E70000" />
<rect x="49" y="19" width="1" height="1" fill="#D20606" />
<rect x="53" y="19" width="1" height="5" fill="#E70000" />
<rect x="31" y="20" width="3" height="1" fill="#0098DB" />
<rect x="34" y="20" width="1" height="1" fill="#000000" />
<rect x="37" y="20" width="1" height="3" fill="#E70000" />
<rect x="42" y="20" width="2" height="4" fill="#E70000" />
<rect x="44" y="20" width="1" height="1" fill="#D20606" />
<rect x="49" y="20" width="1" height="4" fill="#E70000" />
<rect x="50" y="20" width="1" height="1" fill="#D20606" />
<rect x="31" y="21" width="1" height="1" fill="#070710" />
<rect x="32" y="21" width="1" height="4" fill="#0CE6F2" />
<rect x="33" y="21" width="2" height="1" fill="#0098DB" />
<rect x="35" y="21" width="1" height="1" fill="#000000" />
<rect x="40" y="21" width="1" height="4" fill="#F2EE0C" />
<rect x="44" y="21" width="1" height="6" fill="#E70000" />
<rect x="45" y="21" width="1" height="1" fill="#D20606" />
<rect x="50" y="21" width="1" height="4" fill="#E70000" />
<rect x="51" y="21" width="1" height="1" fill="#D20606" />
<rect x="29" y="22" width="1" height="2" fill="#0098DB" />
<rect x="30" y="22" width="2" height="5" fill="#0CE6F2" />
<rect x="33" y="22" width="1" height="2" fill="#0CE6F2" />
<rect x="34" y="22" width="2" height="7" fill="#0098DB" />
<rect x="36" y="22" width="1" height="1" fill="#000000" />
<rect x="38" y="22" width="1" height="2" fill="#E70000" />
<rect x="45" y="22" width="1" height="6" fill="#E70000" />
<rect x="46" y="22" width="2" height="1" fill="#D20606" />
<rect x="51" y="22" width="1" height="4" fill="#E70000" />
<rect x="52" y="22" width="1" height="2" fill="#D20606" />
<rect x="62" y="22" width="2" height="2" fill="#8F563B" />
<rect x="36" y="23" width="1" height="4" fill="#0098DB" />
<rect x="37" y="23" width="1" height="1" fill="#000000" />
<rect x="41" y="23" width="1" height="3" fill="#F2EE0C" />
<rect x="46" y="23" width="2" height="5" fill="#E70000" />
<rect x="48" y="23" width="1" height="1" fill="#D20606" />
<rect x="28" y="24" width="2" height="5" fill="#0CE6F2" />
<rect x="33" y="24" width="1" height="7" fill="#0098DB" />
<rect x="37" y="24" width="1" height="3" fill="#0098DB" />
<rect x="38" y="24" width="1" height="1" fill="#000000" />
<rect x="39" y="24" width="1" height="1" fill="#E70000" />
<rect x="42" y="24" width="1" height="4" fill="#F2EE0C" />
<rect x="43" y="24" width="1" height="1" fill="#E70000" />
<rect x="48" y="24" width="1" height="5" fill="#E70000" />
<rect x="49" y="24" width="1" height="1" fill="#D20606" />
<rect x="52" y="24" width="1" height="3" fill="#E70000" />
<rect x="53" y="24" width="1" height="1" fill="#D20606" />
<rect x="60" y="24" width="4" height="1" fill="#000000" />
<rect x="27" y="25" width="1" height="5" fill="#0CE6F2" />
<rect x="32" y="25" width="1" height="7" fill="#0098DB" />
<rect x="38" y="25" width="1" height="1" fill="#0098DB" />
<rect x="39" y="25" width="1" height="1" fill="#000000" />
<rect x="40" y="25" width="1" height="1" fill="#E70000" />
<rect x="43" y="25" width="1" height="4" fill="#F2EE0C" />
<rect x="49" y="25" width="1" height="5" fill="#E70000" />
<rect x="50" y="25" width="1" height="1" fill="#D20606" />
<rect x="53" y="25" width="1" height="2" fill="#E70000" />
<rect x="59" y="25" width="5" height="3" fill="#8F563B" />
<rect x="26" y="26" width="1" height="1" fill="#FFFFFF" />
<rect x="38" y="26" width="1" height="1" fill="#CECB0B" />
<rect x="39" y="26" width="1" height="1" fill="#074B69" />
<rect x="40" y="26" width="1" height="2" fill="#CECB0B" />
<rect x="41" y="26" width="1" height="2" fill="#C6C6C1" />
<rect x="50" y="26" width="1" height="4" fill="#E70000" />
<rect x="51" y="26" width="1" height="1" fill="#D20606" />
<rect x="26" y="27" width="1" height="6" fill="#0CE6F2" />
<rect x="30" y="27" width="1" height="1" fill="#0CE6F2" />
<rect x="31" y="27" width="1" height="1" fill="#0098DB" />
<rect x="36" y="27" width="3" height="2" fill="#1E579C" />
<rect x="39" y="27" width="1" height="2" fill="#CECB0B" />
<rect x="44" y="27" width="1" height="3" fill="#F2EE0C" />
<rect x="51" y="27" width="1" height="4" fill="#E70000" />
<rect x="52" y="27" width="2" height="1" fill="#D20606" />
<rect x="25" y="28" width="1" height="5" fill="#0CE6F2" />
<rect x="30" y="28" width="2" height="1" fill="#074B69" />
<rect x="40" y="28" width="2" height="1" fill="#F2EE0C" />
<rect x="42" y="28" width="1" height="2" fill="#CECB0B" />
<rect x="45" y="28" width="2" height="2" fill="#F2EE0C" />
<rect x="47" y="28" width="1" height="1" fill="#E70000" />
<rect x="52" y="28" width="2" height="3" fill="#E70000" />
<rect x="57" y="28" width="7" height="1" fill="#000000" />
<rect x="28" y="29" width="1" height="1" fill="#0CE6F2" />
<rect x="29" y="29" width="2" height="1" fill="#074B69" />
<rect x="31" y="29" width="1" height="4" fill="#0098DB" />
<rect x="34" y="29" width="1" height="1" fill="#07C2CC" />
<rect x="35" y="29" width="1" height="11" fill="#0098DB" />
<rect x="36" y="29" width="1" height="5" fill="#07C2CC" />
<rect x="37" y="29" width="1" height="1" fill="#1E579C" />
<rect x="38" y="29" width="1" height="1" fill="#CECB0B" />
<rect x="39" y="29" width="1" height="1" fill="#1E579C" />
<rect x="40" y="29" width="1" height="3" fill="#F2EE0C" />
<rect x="41" y="29" width="1" height="2" fill="#CECB0B" />
<rect x="43" y="29" width="1" height="1" fill="#E70000" />
<rect x="47" y="29" width="2" height="2" fill="#F2EE0C" />
<rect x="56" y="29" width="8" height="6" fill="#8F563B" />
<rect x="27" y="30" width="3" height="1" fill="#074B69" />
<rect x="30" y="30" width="1" height="4" fill="#0098DB" />
<rect x="34" y="30" width="1" height="1" fill="#0098DB" />
<rect x="37" y="30" width="1" height="3" fill="#070710" />
<rect x="38" y="30" width="1" height="1" fill="#074B69" />
<rect x="39" y="30" width="1" height="5" fill="#000000" />
<rect x="42" y="30" width="1" height="1" fill="#D20606" />
<rect x="43" y="30" width="1" height="2" fill="#CECB0B" />
<rect x="44" y="30" width="2" height="2" fill="#E70000" />
<rect x="46" y="30" width="1" height="1" fill="#F2EE0C" />
<rect x="49" y="30" width="2" height="2" fill="#F2EE0C" />
<rect x="27" y="31" width="2" height="1" fill="#0CE6F2" />
<rect x="29" y="31" width="1" height="2" fill="#0098DB" />
<rect x="33" y="31" width="2" height="1" fill="#070710" />
<rect x="38" y="31" width="1" height="2" fill="#070710" />
<rect x="41" y="31" width="2" height="7" fill="#F2EE0C" />
<rect x="46" y="31" width="2" height="2" fill="#E70000" />
<rect x="48" y="31" width="1" height="1" fill="#F2EE0C" />
<rect x="51" y="31" width="2" height="2" fill="#F2EE0C" />
<rect x="53" y="31" width="1" height="1" fill="#E70000" />
<rect x="27" y="32" width="1" height="1" fill="#0CE6F2" />
<rect x="28" y="32" width="1" height="1" fill="#074B69" />
<rect x="32" y="32" width="2" height="2" fill="#070710" />
<rect x="34" y="32" width="1" height="3" fill="#07C2CC" />
<rect x="40" y="32" width="1" height="2" fill="#D20606" />
<rect x="43" y="32" width="1" height="1" fill="#E70000" />
<rect x="44" y="32" width="2" height="1" fill="#D20606" />
<rect x="48" y="32" width="2" height="3" fill="#E70000" />
<rect x="50" y="32" width="1" height="1" fill="#F2EE0C" />
<rect x="53" y="32" width="1" height="2" fill="#F2EE0C" />
<rect x="25" y="33" width="1" height="2" fill="#0098DB" />
<rect x="26" y="33" width="2" height="1" fill="#074B69" />
<rect x="28" y="33" width="1" height="3" fill="#070710" />
<rect x="29" y="33" width="1" height="1" fill="#074B69" />
<rect x="31" y="33" width="1" height="2" fill="#070710" />
<rect x="37" y="33" width="1" height="1" fill="#07C2CC" />
<rect x="38" y="33" width="1" height="1" fill="#CBDBFC" />
<rect x="43" y="33" width="1" height="4" fill="#D20606" />
<rect x="44" y="33" width="2" height="2" fill="#E70000" />
<rect x="46" y="33" width="1" height="1" fill="#D20606" />
<rect x="47" y="33" width="1" height="1" fill="#E70000" />
<rect x="50" y="33" width="2" height="4" fill="#E70000" />
<rect x="52" y="33" width="1" height="1" fill="#F2EE0C" />
<rect x="26" y="34" width="1" height="1" fill="#074B69" />
<rect x="27" y="34" width="1" height="2" fill="#070710" />
<rect x="29" y="34" width="2" height="1" fill="#070710" />
<rect x="32" y="34" width="1" height="1" fill="#070710" />
<rect x="33" y="34" width="1" height="1" fill="#CBDBFC" />
<rect x="36" y="34" width="1" height="6" fill="#0098DB" />
<rect x="37" y="34" width="1" height="1" fill="#FFFFFF" />
<rect x="38" y="34" width="1" height="1" fill="#203562" />
<rect x="40" y="34" width="1" height="23" fill="#E70000" />
<rect x="46" y="34" width="1" height="4" fill="#E70000" />
<rect x="47" y="34" width="1" height="1" fill="#D20606" />
<rect x="52" y="34" width="2" height="4" fill="#E70000" />
<rect x="24" y="35" width="1" height="1" fill="#0098DB" />
<rect x="25" y="35" width="2" height="1" fill="#07C2CC" />
<rect x="29" y="35" width="1" height="1" fill="#070710" />
<rect x="30" y="35" width="1" height="2" fill="#CBDBFC" />
<rect x="31" y="35" width="4" height="1" fill="#1E579C" />
<rect x="37" y="35" width="1" height="3" fill="#1E579C" />
<rect x="38" y="35" width="1" height="6" fill="#000000" />
<rect x="39" y="35" width="1" height="26" fill="#E70000" />
<rect x="44" y="35" width="1" height="1" fill="#D20606" />
<rect x="45" y="35" width="1" height="1" fill="#E70000" />
<rect x="47" y="35" width="1" height="5" fill="#E70000" />
<rect x="48" y="35" width="1" height="1" fill="#D20606" />
<rect x="49" y="35" width="1" height="1" fill="#E70000" />
<rect x="56" y="35" width="8" height="1" fill="#000000" />
<rect x="17" y="36" width="3" height="1" fill="#595707" />
<rect x="20" y="36" width="1" height="1" fill="#FFFB05" />
<rect x="21" y="36" width="5" height="1" fill="#595707" />
<rect x="26" y="36" width="2" height="1" fill="#07C2CC" />
<rect x="28" y="36" width="1" height="1" fill="#203562" />
<rect x="29" y="36" width="1" height="1" fill="#CBDBFC" />
<rect x="31" y="36" width="1" height="1" fill="#1E579C" />
<rect x="32" y="36" width="3" height="8" fill="#0098DB" />
<rect x="44" y="36" width="1" height="1" fill="#E70000" />
<rect x="45" y="36" width="1" height="2" fill="#D20606" />
<rect x="48" y="36" width="1" height="5" fill="#E70000" />
<rect x="49" y="36" width="1" height="1" fill="#D20606" />
<rect x="56" y="36" width="1" height="28" fill="#000000" />
<rect x="57" y="36" width="7" height="3" fill="#8F563B" />
<rect x="0" y="37" width="15" height="1" fill="#070710" />
<rect x="15" y="37" width="1" height="5" fill="#F2F19B" />
<rect x="16" y="37" width="2" height="1" fill="#FFFB05" />
<rect x="18" y="37" width="5" height="2" fill="#F2F19B" />
<rect x="23" y="37" width="1" height="1" fill="#FFFB05" />
<rect x="24" y="37" width="2" height="1" fill="#F2F19B" />
<rect x="26" y="37" width="1" height="2" fill="#F2EE0C" />
<rect x="27" y="37" width="1" height="1" fill="#595707" />
<rect x="28" y="37" width="1" height="1" fill="#0ADCE8" />
<rect x="29" y="37" width="2" height="1" fill="#07C2CC" />
<rect x="31" y="37" width="1" height="6" fill="#0098DB" />
<rect x="43" y="37" width="1" height="11" fill="#F2EE0C" />
<rect x="44" y="37" width="1" height="3" fill="#D20606" />
<rect x="49" y="37" width="1" height="4" fill="#E70000" />
<rect x="50" y="37" width="2" height="1" fill="#D20606" />
<rect x="0" y="38" width="13" height="1" fill="#070710" />
<rect x="13" y="38" width="1" height="1" fill="#595707" />
<rect x="14" y="38" width="1" height="1" fill="#FFFB05" />
<rect x="16" y="38" width="2" height="3" fill="#F2F19B" />
<rect x="23" y="38" width="3" height="2" fill="#F2EE0C" />
<rect x="27" y="38" width="1" height="1" fill="#F2EE0C" />
<rect x="28" y="38" width="2" height="1" fill="#595707" />
<rect x="30" y="38" width="1" height="1" fill="#0098DB" />
<rect x="37" y="38" width="1" height="2" fill="#0098DB" />
<rect x="41" y="38" width="1" height="17" fill="#D20606" />
<rect x="42" y="38" width="1" height="3" fill="#F2EE0C" />
<rect x="45" y="38" width="1" height="2" fill="#E70000" />
<rect x="46" y="38" width="1" height="2" fill="#D20606" />
<rect x="50" y="38" width="2" height="3" fill="#E70000" />
<rect x="52" y="38" width="1" height="1" fill="#D20606" />
<rect x="53" y="38" width="1" height="1" fill="#E70000" />
<rect x="0" y="39" width="11" height="1" fill="#070710" />
<rect x="11" y="39" width="2" height="1" fill="#595707" />
<rect x="13" y="39" width="2" height="4" fill="#F2F19B" />
<rect x="18" y="39" width="2" height="1" fill="#F2F19B" />
<rect x="20" y="39" width="3" height="6" fill="#F2EE0C" />
<rect x="26" y="39" width="2" height="1" fill="#C4C20B" />
<rect x="28" y="39" width="2" height="3" fill="#ADAB07" />
<rect x="30" y="39" width="1" height="1" fill="#074B69" />
<rect x="52" y="39" width="1" height="5" fill="#E70000" />
<rect x="53" y="39" width="1" height="1" fill="#D20606" />
<rect x="57" y="39" width="2" height="25" fill="#8F563B" />
<rect x="59" y="39" width="5" height="1" fill="#000000" />
<rect x="0" y="40" width="10" height="1" fill="#070710" />
<rect x="10" y="40" width="1" height="1" fill="#595707" />
<rect x="11" y="40" width="2" height="4" fill="#F2F19B" />
<rect x="18" y="40" width="2" height="6" fill="#F2EE0C" />
<rect x="23" y="40" width="2" height="2" fill="#F2EE0C" />
<rect x="25" y="40" width="1" height="1" fill="#C4C20B" />
<rect x="26" y="40" width="2" height="4" fill="#ADAB07" />
<rect x="30" y="40" width="1" height="5" fill="#989604" />
<rect x="35" y="40" width="3" height="1" fill="#1E579C" />
<rect x="44" y="40" width="1" height="13" fill="#F2EE0C" />
<rect x="45" y="40" width="1" height="2" fill="#D20606" />
<rect x="46" y="40" width="1" height="2" fill="#E70000" />
<rect x="47" y="40" width="1" height="1" fill="#D20606" />
<rect x="53" y="40" width="1" height="4" fill="#E70000" />
<rect x="59" y="40" width="1" height="24" fill="#000000" />
<rect x="60" y="40" width="4" height="2" fill="#8F563B" />
<rect x="0" y="41" width="9" height="1" fill="#070710" />
<rect x="9" y="41" width="1" height="1" fill="#595707" />
<rect x="10" y="41" width="1" height="7" fill="#F2F19B" />
<rect x="16" y="41" width="2" height="5" fill="#F2EE0C" />
<rect x="25" y="41" width="1" height="3" fill="#ADAB07" />
<rect x="35" y="41" width="2" height="1" fill="#1E579C" />
<rect x="37" y="41" width="1" height="6" fill="#000000" />
<rect x="38" y="41" width="1" height="22" fill="#E70000" />
<rect x="42" y="41" width="1" height="11" fill="#E70000" />
<rect x="47" y="41" width="1" height="3" fill="#E70000" />
<rect x="48" y="41" width="3" height="1" fill="#D20606" />
<rect x="51" y="41" width="1" height="2" fill="#E70000" />
<rect x="0" y="42" width="8" height="2" fill="#070710" />
<rect x="8" y="42" width="2" height="9" fill="#F2F19B" />
<rect x="15" y="42" width="1" height="4" fill="#F2EE0C" />
<rect x="23" y="42" width="1" height="1" fill="#F2EE0C" />
<rect x="24" y="42" width="1" height="2" fill="#ADAB07" />
<rect x="28" y="42" width="1" height="1" fill="#ADAB07" />
<rect x="29" y="42" width="1" height="3" fill="#989604" />
<rect x="35" y="42" width="1" height="1" fill="#0098DB" />
<rect x="36" y="42" width="1" height="3" fill="#070710" />
<rect x="45" y="42" width="1" height="5" fill="#E70000" />
<rect x="46" y="42" width="1" height="2" fill="#D20606" />
<rect x="48" y="42" width="2" height="6" fill="#E70000" />
<rect x="50" y="42" width="1" height="1" fill="#D20606" />
<rect x="60" y="42" width="2" height="22" fill="#8F563B" />
<rect x="62" y="42" width="2" height="22" fill="#000000" />
<rect x="13" y="43" width="2" height="3" fill="#F2EE0C" />
<rect x="23" y="43" width="1" height="1" fill="#C4C20B" />
<rect x="28" y="43" width="1" height="1" fill="#989604" />
<rect x="31" y="43" width="1" height="1" fill="#595707" />
<rect x="35" y="43" width="1" height="2" fill="#070710" />
<rect x="50" y="43" width="1" height="16" fill="#E70000" />
<rect x="51" y="43" width="1" height="1" fill="#D20606" />
<rect x="0" y="44" width="7" height="20" fill="#070710" />
<rect x="7" y="44" width="1" height="1" fill="#595707" />
<rect x="11" y="44" width="1" height="3" fill="#F2F19B" />
<rect x="12" y="44" width="1" height="2" fill="#F2EE0C" />
<rect x="23" y="44" width="3" height="1" fill="#595707" />
<rect x="26" y="44" width="1" height="1" fill="#DBD800" />
<rect x="27" y="44" width="2" height="1" fill="#595707" />
<rect x="31" y="44" width="1" height="1" fill="#989604" />
<rect x="32" y="44" width="1" height="1" fill="#07C2CC" />
<rect x="33" y="44" width="1" height="1" fill="#074B69" />
<rect x="34" y="44" width="1" height="2" fill="#070710" />
<rect x="46" y="44" width="1" height="20" fill="#E70000" />
<rect x="47" y="44" width="1" height="4" fill="#D20606" />
<rect x="51" y="44" width="1" height="20" fill="#E70000" />
<rect x="52" y="44" width="2" height="1" fill="#D20606" />
<rect x="7" y="45" width="1" height="1" fill="#F2F19B" />
<rect x="20" y="45" width="2" height="1" fill="#F2EE0C" />
<rect x="22" y="45" width="1" height="1" fill="#595707" />
<rect x="23" y="45" width="2" height="1" fill="#DBD800" />
<rect x="25" y="45" width="2" height="1" fill="#CCC900" />
<rect x="27" y="45" width="3" height="1" fill="#DBD800" />
<rect x="30" y="45" width="2" height="5" fill="#696805" />
<rect x="32" y="45" width="1" height="1" fill="#074B69" />
<rect x="33" y="45" width="1" height="1" fill="#070710" />
<rect x="35" y="45" width="1" height="1" fill="#074B69" />
<rect x="36" y="45" width="1" height="1" fill="#1E579C" />
<rect x="52" y="45" width="2" height="19" fill="#E70000" />
<rect x="7" y="46" width="1" height="2" fill="#595707" />
<rect x="12" y="46" width="2" height="1" fill="#F2F19B" />
<rect x="14" y="46" width="2" height="1" fill="#595707" />
<rect x="16" y="46" width="3" height="1" fill="#F2F19B" />
<rect x="19" y="46" width="2" height="1" fill="#F2EE0C" />
<rect x="21" y="46" width="1" height="1" fill="#595707" />
<rect x="22" y="46" width="1" height="1" fill="#DBD800" />
<rect x="23" y="46" width="1" height="1" fill="#F2EE0C" />
<rect x="24" y="46" width="3" height="1" fill="#595707" />
<rect x="27" y="46" width="3" height="1" fill="#F2F19B" />
<rect x="32" y="46" width="1" height="2" fill="#595707" />
<rect x="33" y="46" width="1" height="1" fill="#07C2CC" />
<rect x="34" y="46" width="3" height="1" fill="#0098DB" />
<rect x="11" y="47" width="1" height="1" fill="#F2EE0C" />
<rect x="12" y="47" width="1" height="1" fill="#595707" />
<rect x="13" y="47" width="4" height="1" fill="#DBD800" />
<rect x="17" y="47" width="2" height="1" fill="#595707" />
<rect x="19" y="47" width="4" height="1" fill="#F2F19B" />
<rect x="23" y="47" width="1" height="1" fill="#595707" />
<rect x="24" y="47" width="3" height="1" fill="#070710" />
<rect x="27" y="47" width="1" height="1" fill="#595707" />
<rect x="28" y="47" width="2" height="1" fill="#F2EE0C" />
<rect x="33" y="47" width="2" height="2" fill="#0098DB" />
<rect x="35" y="47" width="1" height="1" fill="#074B69" />
<rect x="36" y="47" width="1" height="4" fill="#000000" />
<rect x="37" y="47" width="1" height="17" fill="#E70000" />
<rect x="45" y="47" width="1" height="3" fill="#F2EE0C" />
<rect x="7" y="48" width="1" height="2" fill="#F2F19B" />
<rect x="10" y="48" width="1" height="1" fill="#595707" />
<rect x="11" y="48" width="1" height="1" fill="#DBD800" />
<rect x="12" y="48" width="2" height="1" fill="#CCC900" />
<rect x="14" y="48" width="2" height="1" fill="#595707" />
<rect x="16" y="48" width="1" height="1" fill="#F2EE0C" />
<rect x="17" y="48" width="1" height="1" fill="#FFFB05" />
<rect x="18" y="48" width="4" height="1" fill="#F2F19B" />
<rect x="22" y="48" width="1" height="1" fill="#595707" />
<rect x="23" y="48" width="3" height="1" fill="#070710" />
<rect x="26" y="48" width="1" height="1" fill="#C4C20B" />
<rect x="27" y="48" width="1" height="1" fill="#CCC900" />
<rect x="28" y="48" width="2" height="1" fill="#595707" />
<rect x="32" y="48" width="1" height="2" fill="#696805" />
<rect x="35" y="48" width="1" height="1" fill="#0098DB" />
<rect x="43" y="48" width="1" height="1" fill="#E70000" />
<rect x="47" y="48" width="1" height="16" fill="#E70000" />
<rect x="48" y="48" width="1" height="5" fill="#D20606" />
<rect x="49" y="48" width="1" height="5" fill="#E70000" />
<rect x="10" y="49" width="1" height="1" fill="#DBD800" />
<rect x="11" y="49" width="1" height="1" fill="#CCC900" />
<rect x="12" y="49" width="1" height="1" fill="#FFFB05" />
<rect x="13" y="49" width="1" height="1" fill="#595707" />
<rect x="14" y="49" width="3" height="2" fill="#070710" />
<rect x="17" y="49" width="1" height="1" fill="#595707" />
<rect x="18" y="49" width="3" height="1" fill="#F2F19B" />
<rect x="21" y="49" width="1" height="1" fill="#C4C20B" />
<rect x="22" y="49" width="1" height="2" fill="#070710" />
<rect x="23" y="49" width="1" height="2" fill="#595707" />
<rect x="24" y="49" width="2" height="1" fill="#C4C20B" />
<rect x="26" y="49" width="2" height="1" fill="#ADAB07" />
<rect x="28" y="49" width="2" height="1" fill="#CCC900" />
<rect x="33" y="49" width="1" height="1" fill="#595707" />
<rect x="34" y="49" width="2" height="2" fill="#070710" />
<rect x="43" y="49" width="1" height="7" fill="#F2EE0C" />
<rect x="7" y="50" width="1" height="2" fill="#595707" />
<rect x="10" y="50" width="2" height="1" fill="#F2F19B" />
<rect x="12" y="50" width="1" height="2" fill="#595707" />
<rect x="13" y="50" width="1" height="1" fill="#070710" />
<rect x="17" y="50" width="1" height="1" fill="#070710" />
<rect x="18" y="50" width="1" height="1" fill="#595707" />
<rect x="19" y="50" width="1" height="1" fill="#F2F19B" />
<rect x="20" y="50" width="1" height="4" fill="#F2EE0C" />
<rect x="21" y="50" width="1" height="1" fill="#595707" />
<rect x="24" y="50" width="1" height="1" fill="#C4C20B" />
<rect x="25" y="50" width="2" height="1" fill="#ADAB07" />
<rect x="27" y="50" width="3" height="3" fill="#9E9C03" />
<rect x="30" y="50" width="1" height="3" fill="#838106" />
<rect x="31" y="50" width="1" height="2" fill="#696805" />
<rect x="32" y="50" width="1" height="2" fill="#595707" />
<rect x="33" y="50" width="1" height="3" fill="#070710" />
<rect x="45" y="50" width="1" height="14" fill="#E70000" />
<rect x="8" y="51" width="2" height="1" fill="#F2EE0C" />
<rect x="10" y="51" width="1" height="2" fill="#F2F19B" />
<rect x="11" y="51" width="1" height="1" fill="#F2EE0C" />
<rect x="13" y="51" width="3" height="1" fill="#CCC900" />
<rect x="16" y="51" width="2" height="1" fill="#595707" />
<rect x="18" y="51" width="1" height="1" fill="#070710" />
<rect x="19" y="51" width="1" height="1" fill="#595707" />
<rect x="21" y="51" width="1" height="2" fill="#F2EE0C" />
<rect x="22" y="51" width="1" height="1" fill="#595707" />
<rect x="23" y="51" width="1" height="1" fill="#C4C20B" />
<rect x="24" y="51" width="2" height="1" fill="#ADAB07" />
<rect x="26" y="51" width="1" height="6" fill="#9E9C03" />
<rect x="34" y="51" width="1" height="2" fill="#070710" />
<rect x="35" y="51" width="1" height="2" fill="#000000" />
<rect x="36" y="51" width="1" height="13" fill="#E70000" />
<rect x="7" y="52" width="2" height="2" fill="#F2EE0C" />
<rect x="9" y="52" width="1" height="1" fill="#F2F19B" />
<rect x="11" y="52" width="1" height="1" fill="#595707" />
<rect x="12" y="52" width="1" height="2" fill="#CCC900" />
<rect x="13" y="52" width="2" height="1" fill="#DBD800" />
<rect x="15" y="52" width="2" height="1" fill="#CCC900" />
<rect x="17" y="52" width="2" height="1" fill="#595707" />
<rect x="19" y="52" width="1" height="1" fill="#F2EE0C" />
<rect x="22" y="52" width="1" height="1" fill="#C4C20B" />
<rect x="23" y="52" width="1" height="1" fill="#ADAB07" />
<rect x="24" y="52" width="2" height="4" fill="#9E9C03" />
<rect x="31" y="52" width="1" height="1" fill="#ADAB07" />
<rect x="32" y="52" width="1" height="1" fill="#DBD800" />
<rect x="42" y="52" width="1" height="8" fill="#F2EE0C" />
<rect x="9" y="53" width="1" height="4" fill="#F2EE0C" />
<rect x="10" y="53" width="1" height="2" fill="#595707" />
<rect x="11" y="53" width="1" height="1" fill="#CCC900" />
<rect x="13" y="53" width="4" height="4" fill="#F2F19B" />
<rect x="17" y="53" width="2" height="1" fill="#F2EE0C" />
<rect x="19" y="53" width="1" height="1" fill="#595707" />
<rect x="21" y="53" width="3" height="1" fill="#CCC900" />
<rect x="27" y="53" width="2" height="1" fill="#9E9C03" />
<rect x="29" y="53" width="1" height="1" fill="#838106" />
<rect x="30" y="53" width="1" height="1" fill="#595707" />
<rect x="31" y="53" width="1" height="1" fill="#696805" />
<rect x="32" y="53" width="2" height="2" fill="#595707" />
<rect x="34" y="53" width="1" height="2" fill="#000000" />
<rect x="35" y="53" width="1" height="11" fill="#E70000" />
<rect x="44" y="53" width="1" height="11" fill="#E70000" />
<rect x="48" y="53" width="1" height="11" fill="#E70000" />
<rect x="49" y="53" width="1" height="6" fill="#D20606" />
<rect x="7" y="54" width="1" height="2" fill="#595707" />
<rect x="8" y="54" width="1" height="2" fill="#F2EE0C" />
<rect x="11" y="54" width="2" height="3" fill="#F2F19B" />
<rect x="17" y="54" width="2" height="3" fill="#F2F19B" />
<rect x="19" y="54" width="1" height="1" fill="#CCC900" />
<rect x="20" y="54" width="1" height="1" fill="#F2F19B" />
<rect x="21" y="54" width="3" height="1" fill="#F2EE0C" />
<rect x="27" y="54" width="1" height="2" fill="#9E9C03" />
<rect x="28" y="54" width="1" height="2" fill="#838106" />
<rect x="29" y="54" width="1" height="3" fill="#696805" />
<rect x="30" y="54" width="2" height="1" fill="#C4C20A" />
<rect x="10" y="55" width="1" height="1" fill="#F2F19B" />
<rect x="19" y="55" width="1" height="1" fill="#F2F19B" />
<rect x="20" y="55" width="3" height="2" fill="#F2EE0C" />
<rect x="23" y="55" width="1" height="2" fill="#595707" />
<rect x="30" y="55" width="1" height="1" fill="#F2EE0C" />
<rect x="31" y="55" width="2" height="2" fill="#696805" />
<rect x="33" y="55" width="1" height="2" fill="#000000" />
<rect x="34" y="55" width="1" height="9" fill="#E70000" />
<rect x="41" y="55" width="1" height="7" fill="#F2EE0C" />
<rect x="7" y="56" width="1" height="8" fill="#070710" />
<rect x="8" y="56" width="1" height="3" fill="#595707" />
<rect x="10" y="56" width="1" height="1" fill="#DBD800" />
<rect x="19" y="56" width="1" height="1" fill="#F2EE0C" />
<rect x="24" y="56" width="1" height="1" fill="#9E9C03" />
<rect x="25" y="56" width="1" height="1" fill="#ADAB07" />
<rect x="27" y="56" width="1" height="1" fill="#838106" />
<rect x="28" y="56" width="1" height="2" fill="#696805" />
<rect x="30" y="56" width="1" height="2" fill="#595707" />
<rect x="43" y="56" width="1" height="8" fill="#E70000" />
<rect x="9" y="57" width="1" height="1" fill="#DBD800" />
<rect x="10" y="57" width="1" height="1" fill="#595707" />
<rect x="11" y="57" width="2" height="1" fill="#CCC900" />
<rect x="13" y="57" width="3" height="3" fill="#F2EE0C" />
<rect x="16" y="57" width="2" height="1" fill="#F2F19B" />
<rect x="18" y="57" width="1" height="4" fill="#F2EE0C" />
<rect x="19" y="57" width="1" height="1" fill="#595707" />
<rect x="20" y="57" width="2" height="1" fill="#F2EE0C" />
<rect x="22" y="57" width="1" height="1" fill="#9C9A02" />
<rect x="23" y="57" width="4" height="1" fill="#838106" />
<rect x="27" y="57" width="1" height="1" fill="#696805" />
<rect x="29" y="57" width="1" height="4" fill="#595707" />
<rect x="31" y="57" width="1" height="3" fill="#696805" />
<rect x="32" y="57" width="1" height="3" fill="#000000" />
<rect x="33" y="57" width="1" height="7" fill="#E70000" />
<rect x="40" y="57" width="1" height="2" fill="#D20606" />
<rect x="9" y="58" width="1" height="3" fill="#CCC900" />
<rect x="10" y="58" width="2" height="1" fill="#F2EE0C" />
<rect x="12" y="58" width="1" height="1" fill="#595707" />
<rect x="16" y="58" width="2" height="3" fill="#F2EE0C" />
<rect x="19" y="58" width="1" height="3" fill="#F2EE0C" />
<rect x="20" y="58" width="1" height="1" fill="#595707" />
<rect x="21" y="58" width="1" height="2" fill="#DBD708" />
<rect x="22" y="58" width="4" height="1" fill="#838106" />
<rect x="26" y="58" width="1" height="1" fill="#696805" />
<rect x="27" y="58" width="1" height="1" fill="#595707" />
<rect x="28" y="58" width="1" height="1" fill="#070710" />
<rect x="30" y="58" width="1" height="4" fill="#696805" />
<rect x="8" y="59" width="1" height="5" fill="#070710" />
<rect x="10" y="59" width="2" height="1" fill="#595707" />
<rect x="12" y="59" width="1" height="1" fill="#F2EE0C" />
<rect x="20" y="59" width="1" height="1" fill="#F2EE0C" />
<rect x="22" y="59" width="1" height="4" fill="#BCB807" />
<rect x="23" y="59" width="2" height="1" fill="#838106" />
<rect x="25" y="59" width="2" height="1" fill="#595707" />
<rect x="27" y="59" width="1" height="3" fill="#070710" />
<rect x="28" y="59" width="1" height="3" fill="#595707" />
<rect x="40" y="59" width="1" height="5" fill="#F2EE0C" />
<rect x="49" y="59" width="1" height="5" fill="#E70000" />
<rect x="50" y="59" width="1" height="5" fill="#D20606" />
<rect x="10" y="60" width="1" height="1" fill="#595707" />
<rect x="11" y="60" width="1" height="1" fill="#CCC900" />
<rect x="12" y="60" width="2" height="1" fill="#595707" />
<rect x="14" y="60" width="2" height="1" fill="#F2EE0C" />
<rect x="20" y="60" width="1" height="2" fill="#DBD708" />
<rect x="21" y="60" width="1" height="3" fill="#BCB807" />
<rect x="23" y="60" width="1" height="1" fill="#838106" />
<rect x="24" y="60" width="1" height="1" fill="#696805" />
<rect x="25" y="60" width="1" height="2" fill="#595707" />
<rect x="26" y="60" width="1" height="3" fill="#070710" />
<rect x="31" y="60" width="1" height="2" fill="#000000" />
<rect x="32" y="60" width="1" height="4" fill="#E70000" />
<rect x="42" y="60" width="1" height="4" fill="#E70000" />
<rect x="9" y="61" width="1" height="2" fill="#595707" />
<rect x="10" y="61" width="1" height="1" fill="#CCC900" />
<rect x="11" y="61" width="1" height="3" fill="#DBD800" />
<rect x="12" y="61" width="1" height="1" fill="#CCC900" />
<rect x="13" y="61" width="2" height="1" fill="#595707" />
<rect x="15" y="61" width="1" height="1" fill="#070710" />
<rect x="16" y="61" width="3" height="1" fill="#595707" />
<rect x="19" y="61" width="1" height="1" fill="#DBD708" />
<rect x="23" y="61" width="1" height="1" fill="#696805" />
<rect x="24" y="61" width="1" height="1" fill="#595707" />
<rect x="29" y="61" width="1" height="3" fill="#696805" />
<rect x="39" y="61" width="1" height="3" fill="#F2EE0C" />
<rect x="10" y="62" width="1" height="1" fill="#DBD800" />
<rect x="12" y="62" width="2" height="2" fill="#DBD800" />
<rect x="14" y="62" width="2" height="1" fill="#595707" />
<rect x="16" y="62" width="2" height="2" fill="#070710" />
<rect x="18" y="62" width="3" height="1" fill="#595707" />
<rect x="23" y="62" width="1" height="1" fill="#F2EE0C" />
<rect x="24" y="62" width="2" height="2" fill="#070710" />
<rect x="27" y="62" width="1" height="1" fill="#595707" />
<rect x="28" y="62" width="1" height="2" fill="#696805" />
<rect x="30" y="62" width="1" height="2" fill="#000000" />
<rect x="31" y="62" width="1" height="2" fill="#E70000" />
<rect x="41" y="62" width="1" height="2" fill="#E70000" />
<rect x="9" y="63" width="1" height="1" fill="#070710" />
<rect x="10" y="63" width="1" height="1" fill="#595707" />
<rect x="14" y="63" width="1" height="1" fill="#CCC900" />
<rect x="15" y="63" width="1" height="1" fill="#595707" />
<rect x="18" y="63" width="6" height="1" fill="#070710" />
<rect x="26" y="63" width="1" height="1" fill="#595707" />
<rect x="27" y="63" width="1" height="1" fill="#696805" />
<rect x="38" y="63" width="1" height="1" fill="#F2EE0C" />
</svg>